<svg height='100px' width='100px'  fill="#1A1A1A" xmlns="http://www.w3.org/2000/svg" xmlns:xlink="http://www.w3.org/1999/xlink" version="1.1" x="0px" y="0px" viewBox="0 0 100 100" enable-background="new 0 0 100 100" xml:space="preserve"><g><path d="M69.576,46.938c0.094,0.312,0.438,1.188,0.219,1.562s-1.5,2.219-0.219,2.094s2.719-0.688,2.188-1.75   s-1.156-1.938-1.375-2.531s-0.201-1.156-0.201-1.156s-0.705-0.781-1.08-0.719c0,0-0.719,0.625-0.594,1.188   S69.482,46.625,69.576,46.938z"></path><path d="M68.232,48.906c0.375-0.406,0.969-2.188-0.312-1.844c0,0-1.344,1.531-1.344,1.844S67.857,49.312,68.232,48.906z"></path><path d="M54.107,16.812c0,0,3.562-1.75,3.312-2.938s-1.969-1.906-1.969-1.906s-7-0.113-8.375,1.068S44.92,15,44.764,15.5   s-0.562,1.656-0.562,1.969s-0.094,1.031,0.719,1.344s1.062,1.219,0.875,1.359s-1.25,0.891-2.188,1.016s-1.438,0.688-1.438,0.875   s-1.438,1.438,0,2s3.875,1.312,4.062,0.562S44.67,23,44.17,22.938s0.125-1,1.062-0.875s1.375,0.688,1.938,0.188   s0.955-0.625,1.32-1.312c0.367-0.688,0.93-1.062,1.117-1.125s0.375-1.625,1.75-2S54.107,16.812,54.107,16.812z"></path><path d="M89.161,37.919c-0.134-0.439-0.281-0.873-0.43-1.307c-0.198-0.579-0.408-1.152-0.632-1.72   C82.046,19.473,67.023,8.521,49.482,8.521c-13.185,0-24.942,6.191-32.546,15.81c-2.92,3.695-5.224,7.894-6.759,12.446   C8.775,40.934,8.004,45.377,8.004,50c0,18.401,12.05,34.034,28.67,39.445c4.036,1.313,8.339,2.033,12.809,2.033   c2.408,0,4.765-0.218,7.062-0.613c7.465-1.287,14.25-4.571,19.787-9.286C82.1,76.667,86.509,70.21,88.914,62.85   c0.327-1.004,0.617-2.023,0.869-3.059c0.242-0.996,0.449-2.006,0.617-3.028c0.126-0.763,0.234-1.53,0.317-2.307   c0.157-1.465,0.243-2.95,0.243-4.456C90.961,45.799,90.328,41.743,89.161,37.919z M10.004,50c0-3.78,0.545-7.433,1.541-10.896   c0.222,0.604,0.429,1.251,0.5,1.771c0.125,0.906,0.25,3.688,0.438,3.625s1.062-1,1.312,0s-0.625,2.062-0.713,2.375   s2.525,0.125,0.9,4.5s-0.688,6.812,0,7.915s1.562,1.96,1.688,3.115s1.875,2.345,0.875,0.657s1.188,0.312,1.812,1.125   s1.562,2.312,2.312,4.688s4.688,3.125,6,2.875s0.875,0.812,2.125,1.188s2.25,1.625,3.75,3.188s3.104,0.834,3.104,0.834   s-0.166,1.667-0.583,2.167s-2.667-1-0.667,5.75c0.21,0.708,0.433,1.313,0.66,1.862C20.405,80.965,10.004,66.679,10.004,50z    M82.314,61.876c-1.082-0.167-0.5,1.25-0.5,1.583s-4.666-0.86-4.666-1.597s1.75-2.736-3.084-1.986   c-4.832,0.75-6.166,1.698-7.416,3.641s-4.25,2.609-4.084,6.192c0.168,3.583-0.666,3.917,1.418,5.833   c2.082,1.916,2.082,3.582,8,1.916c5.916-1.666,2.332-0.133,2.916,0.684c0.479,0.671,1.288,0.295,1.657,0.552   c-5.443,5.138-12.339,8.746-20.001,10.139c0.002-0.076,0.006-0.146,0.011-0.207c0.083-1,1.917-2.5,2.25-3.917   s-1.917-2.166-3.25-2.666s-2.333-1-4.667-1.25s-1.166-3.084-3.333-3.334s-1.083-0.166-2.167-1.166s-1.333-1.417-3-1.482   s-2.416-0.268-3.333-0.602s-2.667,1.25-2.667,1.25s-0.557,0.526-0.713,0.573s-0.656-0.219-0.906-0.469s-0.672,0.5-1.031,0.375   s-0.734-1.031-1.172-1.312s0.188-1.25-0.219-2.375s-1.812-0.188-2.625-0.406s0.531-1.938,0.906-2.594s-0.469-0.656-1.188-0.594   s-1.094,1.594-2.219,1.469s-1.469-0.562-1.406-1.469s-0.906-1.125-0.062-3.375S29.295,64,29.92,63.688s1.625-0.25,2.938,0.125   s1.062,1.75,1.125,2.25s0.5-1.75,0.375-3.125s2.062-1.562,3.062-2.438s1.625-2.812,2.125-3.625s1.688-0.938,2-1.875   s1.797-1.234,2-1.391s0.516,0.078,0.312,0.562s0.438,0.391,0.938,0s2.333-1.463,1.979-1.755s-0.521,0.292-0.896,0.209   s-0.688-0.417-0.854-0.812s0.25-0.542-0.104-1c-0.354-0.458-0.729-0.646-0.271-0.979c0.459-0.333,2.542,0.167,3.417-0.042   s1-0.375,0.958,0.042c-0.041,0.417-0.729,1.416-0.979,1.729s2.312,0.625,2.938,0.625s-0.188-1.438-1-1.875s0.062-1.875-0.188-2.796   s-1.938-2.059-2.104-2.6s-0.375-2.25-0.708-2.834c-0.334-0.584-0.625,0.334-0.959,0.75s-0.916,0.084-1.125-0.166   s-0.208-0.292-0.291-1.5c-0.084-1.208-2.334-2.292-3.167-2.334s0.208,1.584-0.083,2.209c-0.292,0.625-0.959,0.5-0.584,1.833   s-1.416,2.583-2.041,3s0.333,2.667-0.459,2.542s-1.166-1.375-1.375-1.959s0.542-0.791,0.459-1.125   c-0.084-0.334-0.334,0-0.792-0.291s-0.458-0.417-1.125-0.625s-0.333-0.584-0.708-0.959s-1.084-0.375-1.459-0.375   s-0.041-0.583-0.25-1.208s-0.208-1.083,0.459-2.417c0.666-1.334,4.375-3.458,4.625-3.791s0.375,0.25,0.041,0.916   s0.584,1.25,0.584,1.125s0.541-0.375,1.125-0.5c0.583-0.125-0.417-1.125-0.5-1.375c-0.084-0.25-0.5-0.583-0.084-1.291   s2.084-0.417,2.25-0.917s0.375-0.333,0.959-1c0.583-0.667,0.041-0.708,0.041-1.25s0.167-0.042,0.709-0.458   c0.541-0.416,1.083,0.125,1.25,0c0.166-0.125,0.5,0.875,0.75,1.458s0.375,2.042-0.334,2.292s-0.333,1.208-0.916,1.291   c-0.584,0.083-1.625,0.375-1.792,0.917s1.917,0.583,2.25,0.542s1.417,1.833,1.958,2.416s1.5-0.625,1.75-1.333   s-0.875-2.208-0.833-2.625s1.5,0.958,1.5,0.958s0.917-0.958,1.167-1.291s-0.709-0.959-1.25-1.542   c-0.542-0.583-0.542-0.25-0.625-1.292c-0.084-1.042,0.375-2,0.25-2.25S47.482,29.583,46.815,29s-0.417-1-0.833-1.958   c-0.417-0.958-0.709-0.959-1.875-0.834c-1.167,0.125-1.375,0.167-1.292-0.416s-0.625,0-1.167,0.291s-1.416,1.334-1.791,2.667   s0.833,1.5,0.833,1.5s0.125,0.833-0.042,1.417s-1.041,1.25-1.416,1.208s0-0.417-0.084-1.083s-0.625-0.542-0.833-1.042   s-0.25-0.625-0.042-1.75s-0.416-2.083-1.291-1.583s-0.709,1.666-1.334,2.166s-0.333,1.042-0.875,1.625s-2.104,0.354-2.104,0.354   s-0.688-0.562-1.125-1s0.5-0.438,1.188-0.438s0.312-0.5,1.25-1.062s-0.188-1.125-0.5-1.562s0.562-0.562,0.688-1.25   s0.688-1.312,0.562-2.312S32.857,25.25,32.67,25.5s-0.312-1.125-0.688-0.812s-0.312-0.375-0.75-0.75s-0.312-0.812-0.5-2.062   s-2.25-0.875-3.562-0.25S26.045,23.312,25.732,24s1,0.938,1.188,0.625s1.188-0.062,0.938,0.438s0.812,1.062,1.003,1.625   s-0.815,0.438-1.378,0.938s0.938,1.438,0.938,1.875s2.062,0.562,2.062,0.562s0.125,0.938-0.438,1.375s-0.979-0.771-0.979-0.771   s-1-0.271-1.312-0.438s-0.292-0.354,0.104-0.75c0.396-0.396-0.75-0.5-1.188-0.875s-2.469-2.136-3.094-2.823s-2.219,0.156-3.25,0.25   s-1.125,0.469-1.562,0.406c-0.211-0.03-0.407-0.182-0.605-0.426c7.222-9.409,18.573-15.49,31.324-15.49   c5.547,0,10.826,1.155,15.62,3.229c-1.594,0.673-3.778,1.576-4.401,1.531c-0.875-0.062-2.344-0.5-2.781,0s-3.719,1.812-3.469,2.625   s1.188,1.469-0.375,1.469s-3.838-0.219-3.388,0.656s0.127,2.136,0.127,2.136s-0.583,1.875,0.75,1.917s1.958,0.416,2.25,0.833   s1.333,1.5,1.083,2.917s-1.416,2.375-0.416,2.75s0.25,2.876-0.417,4.292s-0.333,1.916-0.167,2.416   c0.167,0.5,2.084,6.666,3.292,5.333s2.5-5.709,3.749-5.792c1.25-0.083,1.418-1.209,2.543-1.5s1.791,0.083,2.957-0.75   c1.168-0.833,1.5-4.209,2.584-5.375s0.543-4.166,1.25-5.874c0.709-1.708,1.5-2.791,2.375-3.833   c0.316-0.377,0.492-0.735,0.534-1.052c5.381,4.053,9.69,9.45,12.438,15.686c-0.768-0.217-1.426-0.402-1.639-0.51   c-0.584-0.292,1.25-0.917-0.709-1s-3.166,0.5-4.375,2s-1.584,2.584-2.209,3.917s-2.363,2.521-2.863,3.302s-0.5,3.188,0.281,3.188   s1.906-1,2.062-0.75s1.094,2.188,1.75,2.062s1.906-2.781,1.688-3.969s-0.125-1.5,0.156-1.844s0.156-1.625,1.125-1.688   s1.844-0.844,1.125,0.469s-0.969,1.562-0.719,2.125s0,1.531,1.312,1.281s2.188-0.156,2.188,0s-2,0.562-2.469,1.688   s-0.469,1.219-0.594,1.906s-0.844,1.094-0.844,1.094L77.201,48c0,0-0.781-0.792-1.199-0.5c-0.416,0.292-0.938,0.437-1.5,0.833   s-1.77,1.438-2.02,1.959s-0.875,1.021-1.875,1.271s-1.875,0.291-1.438,0.583s1.479,0.73,1.479,1.584s0.291,1.562-0.166,1.688   c-0.459,0.125-2.668-0.291-3.084,0.584s-0.625,1.832-0.666,2.541c-0.043,0.709-0.125,1.376,1.25,1.334s2.291-0.297,2.75-0.586   c0.457-0.289,0.332-0.872,1.125-1.664c0.791-0.792,1.041-0.458,1.082-1.125c0.043-0.667-0.125-1.375,0.375-1.25   s0.959-0.459,1.5-0.209c0.543,0.25,0.875-0.625,1.709,0.292s1.791,1.501,2.041,2.042s1.125,0.875,0.834,1.583   s0.875-1.271,0.812-1.833s-1.188-1.375-1.334-1.604c-0.145-0.229-0.896-1.479-0.041-1.188c0.854,0.292,2.104,1.479,2.166,1.938   s0.646,2,1.146,2.625s1.188,0.854,1.25,0.833s-0.354-1.5-0.041-2.146s1.02-0.917,1.312-0.75c0.291,0.167,0.332,0.458,0.666,0.25   s0.771-0.417,0.709-1.042s0.123-1.396,0.291-1.75c0.166-0.354,0.729-1.5,1.041-1.021s0.646,1.062,1.125,1.083   c0.09,0.004,0.157-0.017,0.219-0.044c-0.076,0.699-0.172,1.392-0.284,2.079c-0.993,0.175-3.47,0.493-3.392,1.465   c0.081,1.032,1.025,2.588,2.622,2.173c-0.236,0.898-0.511,1.78-0.808,2.652C85.141,62.396,82.688,61.982,82.314,61.876z"></path></g></svg>